<?xml version="1.0" encoding="UTF-8" standalone="no"?>
<svg
   xmlns:dc="http://purl.org/dc/elements/1.1/"
   xmlns:cc="http://creativecommons.org/ns#"
   xmlns:rdf="http://www.w3.org/1999/02/22-rdf-syntax-ns#"
   xmlns:svg="http://www.w3.org/2000/svg"
   xmlns="http://www.w3.org/2000/svg"
   xmlns:sodipodi="http://sodipodi.sourceforge.net/DTD/sodipodi-0.dtd"
   xmlns:inkscape="http://www.inkscape.org/namespaces/inkscape"
   inkscape:version="1.0 (4035a4fb49, 2020-05-01)"
   sodipodi:docname="gif-24px.svg"
   id="svg16"
   version="1.1"
   width="24"
   viewBox="0 0 24 24"
   height="24"
   enable-background="new 0 0 24 24">
  <metadata
     id="metadata22">
    <rdf:RDF>
      <cc:Work
         rdf:about="">
        <dc:format>image/svg+xml</dc:format>
        <dc:type
           rdf:resource="http://purl.org/dc/dcmitype/StillImage" />
      </cc:Work>
    </rdf:RDF>
  </metadata>
  <defs
     id="defs20" />
  <sodipodi:namedview
     inkscape:current-layer="svg16"
     inkscape:window-maximized="1"
     inkscape:window-y="-8"
     inkscape:window-x="1672"
     inkscape:cy="12"
     inkscape:cx="12"
     inkscape:zoom="31.436258"
     showgrid="false"
     id="namedview18"
     inkscape:window-height="987"
     inkscape:window-width="1680"
     inkscape:pageshadow="2"
     inkscape:pageopacity="0"
     guidetolerance="10"
     gridtolerance="10"
     objecttolerance="10"
     borderopacity="1"
     bordercolor="#666666"
     pagecolor="#ffffff" />
  <g
     id="g4">
    <rect
       id="rect2"
       x="0"
       width="24"
       height="24"
       fill="none" />
  </g>
  <g
     style="fill:#28a745;fill-opacity:1"
     id="g14">
    <g
       style="fill:#28a745;fill-opacity:1"
       id="g12">
      <rect
         style="fill:#28a745;fill-opacity:1"
         id="rect6"
         y="9"
         x="11.5"
         width="1.5"
         height="6" />
      <path
         style="fill:#28a745;fill-opacity:1"
         id="path8"
         d="M9,9H6c-0.6,0-1,0.5-1,1v4c0,0.5,0.4,1,1,1h3c0.6,0,1-0.5,1-1v-2H8.5v1.5h-2v-3H10V10C10,9.5,9.6,9,9,9z" />
      <polygon
         style="fill:#28a745;fill-opacity:1"
         id="polygon10"
         points="19,10.5 19,9 14.5,9 14.5,15 16,15 16,13 18,13 18,11.5 16,11.5 16,10.5" />
    </g>
  </g>
</svg>
