<?xml version="1.0" encoding="UTF-8" standalone="no"?>
<svg
   xmlns:dc="http://purl.org/dc/elements/1.1/"
   xmlns:cc="http://creativecommons.org/ns#"
   xmlns:rdf="http://www.w3.org/1999/02/22-rdf-syntax-ns#"
   xmlns:svg="http://www.w3.org/2000/svg"
   xmlns="http://www.w3.org/2000/svg"
   xmlns:sodipodi="http://sodipodi.sourceforge.net/DTD/sodipodi-0.dtd"
   xmlns:inkscape="http://www.inkscape.org/namespaces/inkscape"
   enable-background="new 0 0 24 24"
   height="24"
   viewBox="0 0 24 24"
   width="24"
   version="1.1"
   id="svg28"
   sodipodi:docname="people_alt-24px.svg"
   inkscape:version="1.0 (4035a4fb49, 2020-05-01)">
  <metadata
     id="metadata34">
    <rdf:RDF>
      <cc:Work
         rdf:about="">
        <dc:format>image/svg+xml</dc:format>
        <dc:type
           rdf:resource="http://purl.org/dc/dcmitype/StillImage" />
      </cc:Work>
    </rdf:RDF>
  </metadata>
  <defs
     id="defs32" />
  <sodipodi:namedview
     inkscape:document-rotation="0"
     pagecolor="#ffffff"
     bordercolor="#666666"
     borderopacity="1"
     objecttolerance="10"
     gridtolerance="10"
     guidetolerance="10"
     inkscape:pageopacity="0"
     inkscape:pageshadow="2"
     inkscape:window-width="1680"
     inkscape:window-height="987"
     id="namedview30"
     showgrid="false"
     inkscape:zoom="21.318363"
     inkscape:cx="6.9166726"
     inkscape:cy="4.242158"
     inkscape:window-x="-8"
     inkscape:window-y="-8"
     inkscape:window-maximized="1"
     inkscape:current-layer="svg28" />
  <g
     id="g4">
    <rect
       fill="none"
       height="24"
       width="24"
       id="rect2" />
  </g>
  <g
     style="fill:#ffffff"
     id="g856">
    <g
       style="fill:#ffffff"
       id="g26">
      <g
         style="fill:#ffffff"
         id="g6" />
      <g
         style="fill:#ffffff"
         id="g24">
        <g
           style="fill:#ffffff"
           id="g10">
          <path
             style="fill:#ffffff"
             id="path8"
             fill-rule="evenodd"
             d="M16.67,13.13C18.04,14.06,19,15.32,19,17v3h4v-3 C23,14.82,19.43,13.53,16.67,13.13z" />
        </g>
        <g
           style="fill:#ffffff"
           id="g14">
          <circle
             style="fill:#ffffff"
             id="circle12"
             r="4"
             fill-rule="evenodd"
             cy="8"
             cx="9" />
        </g>
        <g
           style="fill:#ffffff"
           id="g18">
          <path
             style="fill:#ffffff"
             id="path16"
             fill-rule="evenodd"
             d="M15,12c2.21,0,4-1.79,4-4c0-2.21-1.79-4-4-4c-0.47,0-0.91,0.1-1.33,0.24 C14.5,5.27,15,6.58,15,8s-0.5,2.73-1.33,3.76C14.09,11.9,14.53,12,15,12z" />
        </g>
        <g
           style="fill:#ffffff"
           id="g22">
          <path
             style="fill:#ffffff"
             id="path20"
             fill-rule="evenodd"
             d="M9,13c-2.67,0-8,1.34-8,4v3h16v-3C17,14.34,11.67,13,9,13z" />
        </g>
      </g>
    </g>
    <circle
       style="fill:#ffffff;stroke-width:1.67821"
       id="path842"
       cx="20.372969"
       cy="2.5479612"
       r="2.3603296" />
  </g>
</svg>
