<?xml version="1.0" encoding="UTF-8" standalone="no"?>
<svg
   xmlns:dc="http://purl.org/dc/elements/1.1/"
   xmlns:cc="http://creativecommons.org/ns#"
   xmlns:rdf="http://www.w3.org/1999/02/22-rdf-syntax-ns#"
   xmlns:svg="http://www.w3.org/2000/svg"
   xmlns="http://www.w3.org/2000/svg"
   xmlns:sodipodi="http://sodipodi.sourceforge.net/DTD/sodipodi-0.dtd"
   xmlns:inkscape="http://www.inkscape.org/namespaces/inkscape"
   inkscape:version="1.0 (4035a4fb49, 2020-05-01)"
   sodipodi:docname="sentiment_satisfied_alt-24px.svg"
   id="svg16"
   version="1.1"
   width="24"
   viewBox="0 0 24 24"
   height="24">
  <metadata
     id="metadata22">
    <rdf:RDF>
      <cc:Work
         rdf:about="">
        <dc:format>image/svg+xml</dc:format>
        <dc:type
           rdf:resource="http://purl.org/dc/dcmitype/StillImage" />
      </cc:Work>
    </rdf:RDF>
  </metadata>
  <defs
     id="defs20" />
  <sodipodi:namedview
     inkscape:current-layer="svg16"
     inkscape:window-maximized="1"
     inkscape:window-y="-8"
     inkscape:window-x="-8"
     inkscape:cy="12"
     inkscape:cx="12"
     inkscape:zoom="31.436258"
     showgrid="false"
     id="namedview18"
     inkscape:window-height="987"
     inkscape:window-width="1680"
     inkscape:pageshadow="2"
     inkscape:pageopacity="0"
     guidetolerance="10"
     gridtolerance="10"
     objecttolerance="10"
     borderopacity="1"
     bordercolor="#666666"
     pagecolor="#ffffff" />
  <path
     id="path2"
     fill="none"
     d="M0 0h24v24H0V0z" />
  <path
     id="path4"
     fill="none"
     d="M0 0h24v24H0V0z" />
  <circle
     id="circle6"
     r="1.5"
     cy="9.5"
     cx="15.5" />
  <circle
     id="circle8"
     r="1.5"
     cy="9.5"
     cx="8.5" />
  <circle
     style="fill:#28a745;fill-opacity:1"
     id="circle10"
     r="1.5"
     cy="9.5"
     cx="15.5" />
  <circle
     style="fill:#28a745;fill-opacity:1"
     r="1.5"
     id="circle12"
     cy="9.5"
     cx="8.5" />
  <path
     style="fill:#28a745;fill-opacity:1"
     id="path14"
     d="M11.99 2C6.47 2 2 6.48 2 12s4.47 10 9.99 10C17.52 22 22 17.52 22 12S17.52 2 11.99 2zM12 20c-4.42 0-8-3.58-8-8s3.58-8 8-8 8 3.58 8 8-3.58 8-8 8zm0-2.5c2.33 0 4.32-1.45 5.12-3.5h-1.67c-.69 1.19-1.97 2-3.45 2s-2.75-.81-3.45-2H6.88c.8 2.05 2.79 3.5 5.12 3.5z" />
</svg>
